<svg width="154.000000" height="59.000000" viewBox="0 0 154 59" fill="none" xmlns="http://www.w3.org/2000/svg" xmlns:xlink="http://www.w3.org/1999/xlink">
	<desc>
			Created with Pixso.
	</desc>
	<defs>
		<clipPath id="clip28_3566">
			<rect id="Apple---Negative 1" width="28.000000" height="28.000000" transform="translate(10.000000 15.244873)" fill="white" fill-opacity="0"/>
		</clipPath>
	</defs>
	<rect id="App Store" width="154.000000" height="58.489796" fill="#FFFFFF" fill-opacity="1.000000"/>
	<rect id="Apple---Negative 1" width="28.000000" height="28.000000" transform="translate(10.000000 15.244873)" fill="#FFFFFF" fill-opacity="0"/>
	<g clip-path="url(#clip28_3566)">
		<path id="Vector" d="M35.42 37.06C35.01 38.01 34.51 38.92 33.91 39.77C33.12 40.9 32.47 41.68 31.97 42.11C31.2 42.82 30.37 43.19 29.48 43.21C28.84 43.21 28.08 43.03 27.18 42.66C26.28 42.29 25.46 42.11 24.7 42.11C23.91 42.11 23.06 42.29 22.15 42.66C21.24 43.03 20.51 43.22 19.95 43.24C19.1 43.27 18.25 42.9 17.4 42.11C16.86 41.64 16.18 40.83 15.37 39.68C14.5 38.46 13.79 37.04 13.23 35.42C12.63 33.68 12.33 31.98 12.33 30.35C12.33 28.47 12.73 26.85 13.55 25.5C14.18 24.41 15.03 23.55 16.1 22.92C17.14 22.29 18.33 21.96 19.54 21.94C20.22 21.94 21.11 22.15 22.21 22.56C23.31 22.98 24.02 23.19 24.33 23.19C24.56 23.19 25.34 22.94 26.67 22.45C27.93 22 28.99 21.81 29.86 21.89C32.22 22.08 33.98 23.01 35.16 24.68C33.05 25.96 32.01 27.74 32.03 30.04C32.05 31.82 32.7 33.31 33.97 34.49C34.55 35.04 35.2 35.46 35.91 35.76C35.76 36.2 35.6 36.63 35.42 37.06ZM30.02 15.8C30.02 17.2 29.5 18.51 28.49 19.72C27.25 21.16 25.77 21.99 24.15 21.86C24.13 21.68 24.12 21.5 24.12 21.33C24.12 19.98 24.7 18.54 25.74 17.37C26.26 16.77 26.92 16.28 27.72 15.88C28.52 15.49 29.28 15.28 29.99 15.24C30.01 15.43 30.02 15.61 30.02 15.8L30.02 15.8Z" fill="#1A1A1A" fill-opacity="1.000000" fill-rule="nonzero"/>
	</g>
	<path id="Download on the" d="M76.72 21L76.72 12.86L75.72 12.86L75.72 21L76.72 21ZM92.9 16.34Q92.53 17.03 92.53 17.96Q92.53 18.87 92.9 19.58L92.9 19.59Q93.16 20.08 93.55 20.42Q93.73 20.58 93.93 20.7Q94.15 20.83 94.38 20.92Q94.85 21.09 95.39 21.09Q96.15 21.09 96.72 20.77Q96.74 20.76 96.75 20.75Q97.24 20.46 97.53 20.03Q97.58 19.95 97.63 19.86L97.63 21L98.64 21L98.64 12.86L97.63 12.86L97.63 16.05Q97.59 15.97 97.54 15.9Q97.23 15.47 96.71 15.19Q96.47 15.07 96.21 14.99Q95.82 14.87 95.4 14.87Q94.79 14.87 94.27 15.08Q94.09 15.16 93.93 15.25Q93.71 15.38 93.52 15.55Q93.15 15.88 92.9 16.34ZM128.36 15.07Q127.87 14.86 127.29 14.86Q126.64 14.86 126.12 15.11Q125.76 15.28 125.51 15.55Q125.39 15.68 125.3 15.83L125.3 12.86L124.29 12.86L124.29 21L125.3 21L125.3 17.66Q125.3 16.72 125.76 16.22Q125.89 16.09 126.04 15.99Q126.44 15.73 127.02 15.73Q127.62 15.73 128.02 16.01Q128.15 16.09 128.25 16.2L128.26 16.21Q128.71 16.68 128.71 17.58L128.71 21L129.7 21L129.7 17.44Q129.7 16.61 129.38 16.02Q129.17 15.63 128.85 15.37Q128.7 15.24 128.52 15.15Q128.44 15.11 128.36 15.07ZM49.4 13.8Q48.48 13.33 47.23 13.33L44.84 13.33L44.84 21L47.23 21Q48.48 21 49.4 20.54Q49.95 20.26 50.35 19.84Q50.61 19.56 50.81 19.22Q51.3 18.36 51.3 17.18Q51.3 16 50.81 15.13Q50.61 14.78 50.34 14.49Q49.95 14.07 49.4 13.8ZM121.51 19.35L121.51 15.79L123.09 15.79L123.09 14.97L121.51 14.97L121.51 13.45L120.51 13.45L120.51 14.97L119.73 14.97L119.73 15.79L120.51 15.79L120.51 19.35Q120.51 20.22 120.93 20.61Q121.35 21 122.18 21L123.09 21L123.09 20.15L122.35 20.15Q121.89 20.15 121.7 19.97Q121.51 19.78 121.51 19.35ZM49.4 19.48Q48.62 20.17 47.23 20.17L45.84 20.17L45.84 14.14L47.23 14.14Q48.57 14.14 49.34 14.8Q49.42 14.87 49.49 14.94Q49.58 15.04 49.66 15.13Q50.28 15.91 50.28 17.18Q50.28 18.44 49.66 19.2Q49.58 19.29 49.5 19.38Q49.45 19.43 49.4 19.48ZM73.02 15.23Q72.44 14.86 71.62 14.86Q71.1 14.86 70.66 15.03Q70.57 15.07 70.49 15.11Q70.17 15.27 69.93 15.51Q69.79 15.65 69.68 15.83L69.68 14.97L68.68 14.97L68.68 21L69.68 21L69.68 17.66Q69.68 16.72 70.15 16.22Q70.27 16.09 70.42 15.99Q70.83 15.73 71.41 15.73Q72 15.73 72.41 16.01Q72.53 16.09 72.64 16.2L72.64 16.21Q73.09 16.68 73.09 17.58L73.09 21L74.08 21L74.08 17.44Q74.08 16.3 73.52 15.65Q73.46 15.58 73.4 15.52Q73.23 15.35 73.02 15.23ZM114.66 15.23Q114.07 14.86 113.25 14.86Q112.74 14.86 112.3 15.03Q112.21 15.07 112.12 15.11Q111.81 15.27 111.57 15.51Q111.43 15.65 111.32 15.83L111.32 14.97L110.31 14.97L110.31 21L111.32 21L111.32 17.66Q111.32 16.72 111.78 16.22Q111.91 16.09 112.06 15.99Q112.46 15.73 113.04 15.73Q113.64 15.73 114.04 16.01Q114.17 16.09 114.27 16.2L114.28 16.21Q114.73 16.68 114.73 17.58L114.73 21L115.72 21L115.72 17.44Q115.72 16.3 115.15 15.65Q115.1 15.58 115.03 15.52Q114.86 15.35 114.66 15.23ZM54.03 20.86Q54.59 21.09 55.25 21.09Q55.92 21.09 56.49 20.86Q56.65 20.8 56.81 20.71Q57.11 20.54 57.36 20.32Q57.69 20.02 57.92 19.61Q57.95 19.58 57.96 19.54Q58.34 18.86 58.34 17.97Q58.34 17.03 57.94 16.33Q57.7 15.92 57.37 15.62Q57.13 15.41 56.84 15.25Q56.72 15.18 56.59 15.13Q56 14.87 55.29 14.87Q54.57 14.87 53.97 15.13Q53.85 15.19 53.74 15.25Q53.47 15.39 53.25 15.59Q52.89 15.9 52.64 16.34Q52.63 16.37 52.62 16.39Q52.24 17.08 52.24 17.97Q52.24 18.91 52.63 19.61Q52.87 20.03 53.2 20.34Q53.43 20.55 53.71 20.71Q53.87 20.8 54.03 20.86ZM79.83 20.86Q80.4 21.09 81.05 21.09Q81.72 21.09 82.3 20.86Q82.46 20.8 82.62 20.71Q82.92 20.54 83.17 20.32Q83.5 20.02 83.73 19.61Q83.75 19.58 83.77 19.54Q84.14 18.86 84.14 17.97Q84.14 17.03 83.74 16.33Q83.51 15.92 83.18 15.62Q82.94 15.41 82.65 15.25Q82.53 15.18 82.4 15.13Q81.81 14.87 81.1 14.87Q80.38 14.87 79.78 15.13Q79.66 15.19 79.55 15.25Q79.28 15.39 79.06 15.59Q78.7 15.9 78.45 16.34Q78.44 16.37 78.42 16.39Q78.05 17.08 78.05 17.97Q78.05 18.91 78.44 19.61Q78.67 20.03 79 20.34Q79.24 20.55 79.52 20.71Q79.67 20.8 79.83 20.86ZM85.46 16.34Q85.09 17.03 85.09 17.96Q85.09 18.87 85.46 19.58L85.46 19.59Q85.73 20.1 86.14 20.45Q86.3 20.59 86.49 20.7Q86.69 20.82 86.91 20.91Q87.39 21.09 87.94 21.09Q88.69 21.09 89.26 20.78Q89.29 20.76 89.31 20.75Q89.85 20.43 90.14 19.96Q90.17 19.92 90.2 19.87L90.2 21L91.21 21L91.21 14.97L90.2 14.97L90.2 16.07Q90.18 16.03 90.15 16Q89.87 15.53 89.33 15.21Q88.74 14.87 87.95 14.87Q87.39 14.87 86.9 15.06Q86.69 15.14 86.49 15.25Q86.27 15.38 86.08 15.55Q85.71 15.88 85.46 16.34ZM104.68 20.86Q105.25 21.09 105.9 21.09Q106.57 21.09 107.15 20.86Q107.31 20.8 107.47 20.71Q107.77 20.54 108.02 20.32Q108.35 20.02 108.58 19.61Q108.6 19.58 108.62 19.54Q108.99 18.86 108.99 17.97Q108.99 17.03 108.59 16.33Q108.36 15.92 108.02 15.62Q107.79 15.41 107.5 15.25Q107.38 15.18 107.25 15.13Q106.65 14.87 105.95 14.87Q105.23 14.87 104.63 15.13Q104.51 15.19 104.4 15.25Q104.13 15.39 103.91 15.59Q103.55 15.9 103.3 16.34Q103.29 16.37 103.27 16.39Q102.9 17.08 102.9 17.97Q102.9 18.91 103.29 19.61Q103.52 20.03 103.85 20.34Q104.09 20.55 104.37 20.71Q104.52 20.8 104.68 20.86ZM136.8 18.36Q136.83 18.04 136.83 17.75Q136.83 17 136.54 16.39Q136.51 16.33 136.48 16.27Q136.32 15.98 136.1 15.74Q135.83 15.45 135.46 15.24Q135.43 15.23 135.41 15.21Q134.77 14.87 133.94 14.87Q133.09 14.87 132.42 15.23Q132.4 15.24 132.38 15.25Q132.11 15.4 131.89 15.6Q131.56 15.91 131.33 16.33Q130.96 17.03 130.96 17.97Q130.96 18.91 131.35 19.61Q131.58 20.05 131.93 20.37Q132.15 20.56 132.41 20.71Q132.5 20.77 132.61 20.81Q133.21 21.09 133.94 21.09Q134.92 21.09 135.61 20.65Q135.68 20.6 135.75 20.55Q136.12 20.27 136.37 19.9Q136.6 19.55 136.71 19.14L135.64 19.14Q135.54 19.4 135.38 19.61Q135.23 19.8 135.02 19.95Q134.59 20.25 133.94 20.25Q133.46 20.25 133.06 20.06Q132.81 19.94 132.59 19.75Q132.48 19.65 132.39 19.53Q132.03 19.07 131.98 18.36L136.8 18.36ZM65.81 21L67.69 14.97L66.7 14.97L65.34 20.04L63.87 14.97L62.85 14.97L61.35 20.03L59.97 14.97L58.94 14.97L60.84 21L61.87 21L63.32 16.21L64.77 21L65.81 21ZM135.55 16.56Q135.8 16.97 135.8 17.54L132 17.54Q132.06 16.83 132.44 16.38Q132.51 16.28 132.6 16.2Q132.82 16.01 133.07 15.89Q133.44 15.72 133.9 15.72Q134.36 15.72 134.76 15.88Q134.81 15.9 134.86 15.93Q135.08 16.04 135.25 16.2Q135.42 16.35 135.55 16.56ZM55.8 20.14Q55.53 20.21 55.25 20.21Q54.88 20.21 54.56 20.1Q54.41 20.05 54.26 19.97Q54.18 19.92 54.1 19.87Q53.76 19.63 53.54 19.21Q53.27 18.71 53.27 17.97Q53.27 17.24 53.54 16.74Q53.77 16.32 54.12 16.08Q54.19 16.03 54.27 15.98Q54.39 15.92 54.52 15.87Q54.87 15.74 55.28 15.74Q55.61 15.74 55.9 15.83Q56.1 15.89 56.28 15.98Q56.36 16.03 56.44 16.08Q56.79 16.32 57.03 16.74Q57.32 17.24 57.32 17.97Q57.32 18.7 57.02 19.2Q56.8 19.59 56.47 19.83Q56.37 19.9 56.26 19.96Q56.04 20.08 55.8 20.14ZM81.61 20.14Q81.34 20.21 81.05 20.21Q80.69 20.21 80.37 20.1Q80.21 20.05 80.06 19.97Q79.99 19.92 79.91 19.87Q79.57 19.63 79.34 19.21Q79.07 18.71 79.07 17.97Q79.07 17.24 79.35 16.74Q79.58 16.32 79.92 16.08Q80 16.03 80.08 15.98Q80.2 15.92 80.32 15.87Q80.68 15.74 81.09 15.74Q81.41 15.74 81.71 15.83Q81.9 15.89 82.09 15.98Q82.17 16.03 82.24 16.08Q82.6 16.32 82.83 16.74Q83.12 17.24 83.12 17.97Q83.12 18.7 82.83 19.2Q82.61 19.59 82.28 19.83Q82.18 19.9 82.07 19.96Q81.84 20.08 81.61 20.14ZM89.92 16.78Q90.2 17.29 90.2 17.97Q90.2 18.65 89.92 19.16Q89.72 19.54 89.42 19.78Q89.3 19.87 89.18 19.95Q89.02 20.04 88.84 20.1Q88.52 20.21 88.15 20.21Q87.77 20.21 87.43 20.09Q87.27 20.03 87.13 19.95Q87.02 19.88 86.93 19.81Q86.6 19.56 86.39 19.16Q86.11 18.65 86.11 17.96Q86.11 17.28 86.39 16.77Q86.6 16.38 86.93 16.13Q87.02 16.06 87.13 16Q87.27 15.92 87.42 15.86Q87.76 15.74 88.15 15.74Q88.51 15.74 88.83 15.85Q89.01 15.91 89.18 16.01Q89.31 16.08 89.42 16.18Q89.72 16.42 89.92 16.78ZM97.36 16.78Q97.63 17.29 97.63 17.97Q97.63 18.65 97.36 19.16Q97.16 19.54 96.85 19.78Q96.74 19.87 96.61 19.95Q96.45 20.04 96.28 20.1Q95.95 20.21 95.59 20.21Q95.2 20.21 94.87 20.09Q94.71 20.03 94.56 19.95Q94.46 19.88 94.36 19.81Q94.04 19.56 93.82 19.16Q93.55 18.65 93.55 17.96Q93.55 17.28 93.82 16.77Q94.04 16.38 94.36 16.13Q94.46 16.06 94.56 16Q94.7 15.92 94.86 15.86Q95.2 15.74 95.59 15.74Q95.94 15.74 96.27 15.85Q96.45 15.91 96.61 16.01Q96.74 16.08 96.86 16.18Q97.16 16.42 97.36 16.78ZM106.46 20.14Q106.19 20.21 105.9 20.21Q105.54 20.21 105.22 20.1Q105.06 20.05 104.91 19.97Q104.83 19.92 104.76 19.87Q104.42 19.63 104.19 19.21Q103.92 18.71 103.92 17.97Q103.92 17.24 104.2 16.74Q104.42 16.32 104.77 16.08Q104.85 16.03 104.93 15.98Q105.05 15.92 105.17 15.87Q105.53 15.74 105.94 15.74Q106.26 15.74 106.56 15.83Q106.75 15.89 106.94 15.98Q107.02 16.03 107.09 16.08Q107.45 16.32 107.68 16.74Q107.97 17.24 107.97 17.97Q107.97 18.7 107.68 19.2Q107.46 19.59 107.13 19.83Q107.03 19.9 106.92 19.96Q106.69 20.08 106.46 20.14Z" fill="#4D4D4D" fill-opacity="1.000000" fill-rule="evenodd"/>
	<path id="App Store" d="M83.85 41.72Q84.75 42.11 85.87 42.11Q87.05 42.11 87.92 41.65Q88.7 41.24 89.15 40.6Q89.2 40.53 89.25 40.44Q89.54 39.97 89.65 39.45Q89.71 39.15 89.71 38.84Q89.71 37.79 89.22 37.16Q88.87 36.7 88.42 36.42Q88.23 36.31 88.03 36.22Q87.34 35.92 86.23 35.61Q85.4 35.39 84.92 35.19Q84.44 35 84.13 34.67Q84.04 34.58 83.98 34.47Q83.82 34.2 83.82 33.83Q83.82 33.3 84.07 32.94Q84.17 32.8 84.32 32.69Q84.35 32.66 84.39 32.63Q84.87 32.28 85.6 32.28Q86.43 32.28 86.95 32.69Q86.97 32.7 86.99 32.72Q87.34 33.01 87.48 33.37Q87.55 33.56 87.56 33.76L89.58 33.76Q89.51 32.89 89.1 32.25Q88.83 31.85 88.43 31.54Q88.38 31.49 88.32 31.45Q87.31 30.73 85.79 30.73Q84.65 30.73 83.79 31.12Q83.13 31.41 82.69 31.9Q82.56 32.05 82.44 32.22Q82.34 32.37 82.27 32.53Q81.96 33.14 81.96 33.9Q81.96 34.94 82.44 35.57Q82.8 36.02 83.25 36.3Q83.42 36.4 83.6 36.48Q84.28 36.78 85.37 37.07Q86.23 37.29 86.72 37.48Q87.17 37.66 87.49 37.98Q87.51 38 87.54 38.03Q87.61 38.1 87.67 38.19Q87.87 38.5 87.87 38.94Q87.87 39.33 87.71 39.64Q87.58 39.91 87.34 40.12Q86.81 40.57 85.87 40.57Q84.97 40.57 84.47 40.13Q84.46 40.12 84.45 40.11Q84.25 39.92 84.12 39.7Q83.92 39.36 83.88 38.92L81.93 38.92Q81.93 39.6 82.19 40.16Q82.3 40.39 82.44 40.6Q82.52 40.71 82.6 40.81Q83.09 41.38 83.85 41.72ZM47.24 39.72L51.9 39.72L52.7 42L54.62 42L50.64 30.86L48.52 30.86L44.54 42L46.44 42L47.24 39.72ZM94 39.55L94 34.67L96.14 34.67L96.14 33.18L94 33.18L94 30.99L92.16 30.99L92.16 33.18L91.12 33.18L91.12 34.67L92.16 34.67L92.16 39.55Q92.16 40.82 92.79 41.4Q92.8 41.41 92.81 41.42Q93.47 42 94.7 42L96.14 42L96.14 40.48L95.02 40.48Q94.46 40.48 94.23 40.26Q94 40.04 94 39.55ZM59.44 33.45Q58.64 33.87 58.17 34.48L58.17 33.18L56.35 33.18L56.35 46.19L58.17 46.19L58.17 40.71Q58.67 41.32 59.45 41.73Q60.24 42.14 61.24 42.14Q61.93 42.14 62.54 41.93Q62.96 41.79 63.35 41.56Q63.65 41.37 63.91 41.14Q64.47 40.64 64.84 39.92Q64.85 39.92 64.85 39.91Q65.39 38.86 65.39 37.55Q65.39 36.22 64.84 35.19Q64.49 34.53 63.96 34.06Q63.68 33.8 63.35 33.6Q62.98 33.39 62.59 33.25Q61.95 33.03 61.24 33.03Q60.28 33.03 59.5 33.42Q59.47 33.43 59.44 33.45ZM70.28 33.45Q69.48 33.87 69.02 34.48L69.02 33.18L67.19 33.18L67.19 46.19L69.02 46.19L69.02 40.71Q69.51 41.32 70.3 41.73Q71.08 42.14 72.09 42.14Q72.78 42.14 73.39 41.93Q73.81 41.79 74.19 41.56Q74.5 41.37 74.76 41.14Q75.32 40.64 75.69 39.92Q75.7 39.92 75.7 39.91Q76.23 38.86 76.23 37.55Q76.23 36.22 75.69 35.19Q75.34 34.53 74.81 34.06Q74.53 33.8 74.19 33.6Q73.83 33.39 73.44 33.25Q72.8 33.03 72.09 33.03Q71.13 33.03 70.35 33.42Q70.32 33.43 70.28 33.45ZM99.83 41.79Q100.66 42.14 101.64 42.14Q102.59 42.14 103.42 41.82Q103.69 41.71 103.96 41.57Q104.44 41.31 104.83 40.94Q105.28 40.52 105.61 39.96Q105.68 39.84 105.75 39.71Q106.22 38.77 106.22 37.58Q106.22 36.33 105.71 35.34Q105.67 35.27 105.63 35.19Q105.28 34.58 104.78 34.14Q104.43 33.83 104.01 33.6Q103.81 33.49 103.6 33.4Q102.74 33.03 101.72 33.03Q100.69 33.03 99.82 33.41Q99.62 33.49 99.44 33.6Q99.01 33.83 98.66 34.14Q98.17 34.58 97.82 35.19Q97.78 35.26 97.75 35.32Q97.23 36.32 97.23 37.58Q97.23 38.94 97.8 39.97Q98.13 40.56 98.6 41Q98.96 41.33 99.39 41.57Q99.6 41.69 99.83 41.79ZM110.43 33.76Q110.09 34.06 109.85 34.46L109.85 33.18L108.03 33.18L108.03 42L109.85 42L109.85 37.35Q109.85 36.01 110.4 35.47Q110.41 35.46 110.42 35.45Q110.97 34.92 112.03 34.92L112.49 34.92L112.49 33.03Q111.58 33.03 110.92 33.41Q110.65 33.56 110.43 33.76ZM122.19 38.27Q122.25 37.87 122.25 37.37Q122.25 36.13 121.74 35.16Q121.72 35.14 121.71 35.11Q121.42 34.6 121.02 34.2Q120.66 33.84 120.19 33.58Q120.09 33.53 120 33.48Q119.09 33.03 117.96 33.03Q116.73 33.03 115.76 33.54Q115.72 33.57 115.67 33.6Q115.23 33.84 114.88 34.17Q114.43 34.6 114.12 35.19Q113.57 36.22 113.57 37.58Q113.57 38.94 114.13 39.97Q114.46 40.56 114.92 41Q115.27 41.33 115.7 41.57Q115.84 41.65 115.99 41.72Q116.88 42.14 117.96 42.14Q119.39 42.14 120.38 41.49Q120.47 41.43 120.56 41.37Q121.14 40.94 121.52 40.37Q121.83 39.92 122.01 39.37L120.04 39.37Q119.78 39.91 119.34 40.22Q118.79 40.6 117.96 40.6Q117.31 40.6 116.79 40.35Q116.49 40.2 116.23 39.96Q116.02 39.77 115.86 39.53Q115.51 39 115.45 38.27L122.19 38.27ZM49.58 33.07L51.39 38.23L47.76 38.23L49.58 33.07ZM120.06 35.7Q120.34 36.17 120.35 36.8L115.47 36.8Q115.57 36.01 115.98 35.48Q116.11 35.31 116.27 35.17Q116.55 34.92 116.87 34.77Q117.33 34.57 117.88 34.57Q118.64 34.57 119.22 34.89Q119.44 35.01 119.63 35.18Q119.9 35.41 120.06 35.7ZM63.15 35.97Q63.53 36.64 63.53 37.55Q63.53 38.46 63.15 39.15Q62.85 39.7 62.39 40.05Q62.28 40.13 62.16 40.19Q61.82 40.39 61.45 40.48Q61.15 40.55 60.84 40.55Q60.58 40.55 60.34 40.5Q59.92 40.42 59.54 40.2Q59.43 40.14 59.33 40.07Q58.86 39.73 58.55 39.17Q58.17 38.49 58.17 37.58Q58.17 36.67 58.55 36Q58.85 35.46 59.3 35.12Q59.42 35.04 59.54 34.97Q59.92 34.75 60.34 34.67Q60.58 34.62 60.84 34.62Q61.18 34.62 61.5 34.7Q61.84 34.79 62.16 34.96Q62.31 35.05 62.45 35.15Q62.87 35.47 63.15 35.97ZM74 35.97Q74.38 36.64 74.38 37.55Q74.38 38.46 74 39.15Q73.7 39.7 73.24 40.05Q73.13 40.13 73.01 40.19Q72.67 40.39 72.3 40.48Q72 40.55 71.69 40.55Q71.43 40.55 71.18 40.5Q70.77 40.42 70.39 40.2Q70.28 40.14 70.18 40.07Q69.71 39.73 69.39 39.17Q69.02 38.49 69.02 37.58Q69.02 36.67 69.39 36Q69.7 35.46 70.15 35.12Q70.26 35.04 70.39 34.97Q70.77 34.75 71.18 34.67Q71.43 34.62 71.69 34.62Q72.03 34.62 72.35 34.7Q72.69 34.79 73.01 34.96Q73.16 35.05 73.3 35.15Q73.72 35.47 74 35.97ZM102.33 40.47Q102 40.55 101.64 40.55Q101.03 40.55 100.53 40.31Q100.14 40.12 99.81 39.78Q99.79 39.76 99.77 39.74Q99.08 38.96 99.08 37.58Q99.08 36.62 99.44 35.96Q99.71 35.44 100.14 35.12Q100.25 35.03 100.39 34.96Q100.64 34.81 100.91 34.73Q101.28 34.62 101.69 34.62Q102.1 34.62 102.48 34.73Q102.75 34.82 103 34.96Q103.14 35.03 103.26 35.12Q103.69 35.44 103.98 35.96Q104.35 36.62 104.35 37.58Q104.35 38.54 103.96 39.21Q103.65 39.75 103.19 40.08Q103.08 40.15 102.96 40.22Q102.66 40.38 102.33 40.47Z" fill="#1A1A1A" fill-opacity="1.000000" fill-rule="evenodd"/>
</svg>
