<svg width="150.000000" height="59.000000" viewBox="0 0 150 59" fill="none" xmlns="http://www.w3.org/2000/svg" xmlns:xlink="http://www.w3.org/1999/xlink">
	<desc>
			Created with Pixso.
	</desc>
	<defs>
		<clipPath id="clip28_3573">
			<rect id="Icon=google-play 1" width="24.000000" height="24.000000" transform="translate(10.000000 17.244873)" fill="white" fill-opacity="0"/>
		</clipPath>
	</defs>
	<rect id="Google Play" width="150.000000" height="58.489796" fill="#FFFFFF" fill-opacity="1.000000"/>
	<rect id="Icon=google-play 1" width="24.000000" height="24.000000" transform="translate(10.000000 17.244873)" fill="#FFFFFF" fill-opacity="0"/>
	<g clip-path="url(#clip28_3573)">
		<path id="Vector" d="M25.06 28.72L14.71 18.35L27.88 25.91L25.06 28.72ZM12.01 17.74C11.4 18.06 11 18.64 11 19.4L11 40.08C11 40.84 11.4 41.42 12.01 41.74L24.04 29.74L12.01 17.74ZM31.95 28.32L29.19 26.72L26.11 29.74L29.19 32.77L32 31.17C32.85 30.5 32.85 28.99 31.95 28.32ZM14.71 41.14L27.88 33.58L25.06 30.76L14.71 41.14Z" fill="#1A1A1A" fill-opacity="1.000000" fill-rule="nonzero"/>
	</g>
	<path id="Download on the" d="M72.72 21L72.72 12.86L71.72 12.86L71.72 21L72.72 21ZM88.9 16.34Q88.53 17.03 88.53 17.96Q88.53 18.87 88.9 19.58L88.9 19.59Q89.16 20.08 89.55 20.42Q89.73 20.58 89.93 20.7Q90.15 20.83 90.38 20.92Q90.85 21.09 91.39 21.09Q92.15 21.09 92.72 20.77Q92.74 20.76 92.75 20.75Q93.24 20.46 93.53 20.03Q93.58 19.95 93.63 19.86L93.63 21L94.64 21L94.64 12.86L93.63 12.86L93.63 16.05Q93.59 15.97 93.54 15.9Q93.23 15.47 92.71 15.19Q92.47 15.07 92.21 14.99Q91.82 14.87 91.4 14.87Q90.79 14.87 90.27 15.08Q90.09 15.16 89.93 15.25Q89.71 15.38 89.52 15.55Q89.15 15.88 88.9 16.34ZM124.36 15.07Q123.87 14.86 123.29 14.86Q122.64 14.86 122.12 15.11Q121.76 15.28 121.51 15.55Q121.39 15.68 121.3 15.83L121.3 12.86L120.29 12.86L120.29 21L121.3 21L121.3 17.66Q121.3 16.72 121.76 16.22Q121.89 16.09 122.04 15.99Q122.44 15.73 123.02 15.73Q123.62 15.73 124.02 16.01Q124.15 16.09 124.26 16.2L124.26 16.21Q124.71 16.68 124.71 17.58L124.71 21L125.7 21L125.7 17.44Q125.7 16.61 125.38 16.02Q125.17 15.63 124.85 15.37Q124.7 15.24 124.52 15.15Q124.44 15.11 124.36 15.07ZM45.4 13.8Q44.48 13.33 43.23 13.33L40.84 13.33L40.84 21L43.23 21Q44.48 21 45.4 20.54Q45.95 20.26 46.35 19.84Q46.61 19.56 46.81 19.22Q47.3 18.36 47.3 17.18Q47.3 16 46.81 15.13Q46.61 14.78 46.34 14.49Q45.95 14.07 45.4 13.8ZM117.51 19.35L117.51 15.79L119.09 15.79L119.09 14.97L117.51 14.97L117.51 13.45L116.51 13.45L116.51 14.97L115.73 14.97L115.73 15.79L116.51 15.79L116.51 19.35Q116.51 20.22 116.93 20.61Q117.35 21 118.18 21L119.09 21L119.09 20.15L118.35 20.15Q117.89 20.15 117.7 19.97Q117.51 19.78 117.51 19.35ZM45.4 19.48Q44.62 20.17 43.23 20.17L41.84 20.17L41.84 14.14L43.23 14.14Q44.57 14.14 45.34 14.8Q45.42 14.87 45.49 14.94Q45.58 15.04 45.66 15.13Q46.28 15.91 46.28 17.18Q46.28 18.44 45.66 19.2Q45.58 19.29 45.5 19.38Q45.45 19.43 45.4 19.48ZM69.02 15.23Q68.44 14.86 67.62 14.86Q67.1 14.86 66.66 15.03Q66.57 15.07 66.49 15.11Q66.17 15.27 65.93 15.51Q65.79 15.65 65.68 15.83L65.68 14.97L64.68 14.97L64.68 21L65.68 21L65.68 17.66Q65.68 16.72 66.15 16.22Q66.27 16.09 66.42 15.99Q66.83 15.73 67.41 15.73Q68 15.73 68.41 16.01Q68.53 16.09 68.64 16.2L68.64 16.21Q69.09 16.68 69.09 17.58L69.09 21L70.08 21L70.08 17.44Q70.08 16.3 69.52 15.65Q69.46 15.58 69.4 15.52Q69.23 15.35 69.02 15.23ZM110.66 15.23Q110.07 14.86 109.25 14.86Q108.74 14.86 108.3 15.03Q108.21 15.07 108.12 15.11Q107.81 15.27 107.57 15.51Q107.43 15.65 107.32 15.83L107.32 14.97L106.31 14.97L106.31 21L107.32 21L107.32 17.66Q107.32 16.72 107.78 16.22Q107.91 16.09 108.06 15.99Q108.46 15.73 109.04 15.73Q109.64 15.73 110.04 16.01Q110.17 16.09 110.27 16.2L110.28 16.21Q110.73 16.68 110.73 17.58L110.73 21L111.72 21L111.72 17.44Q111.72 16.3 111.15 15.65Q111.1 15.58 111.03 15.52Q110.86 15.35 110.66 15.23ZM50.03 20.86Q50.59 21.09 51.25 21.09Q51.92 21.09 52.49 20.86Q52.65 20.8 52.81 20.71Q53.11 20.54 53.36 20.32Q53.69 20.02 53.92 19.61Q53.95 19.58 53.96 19.54Q54.34 18.86 54.34 17.97Q54.34 17.03 53.94 16.33Q53.7 15.92 53.37 15.62Q53.13 15.41 52.84 15.25Q52.72 15.18 52.59 15.13Q52 14.87 51.29 14.87Q50.57 14.87 49.97 15.13Q49.85 15.19 49.74 15.25Q49.47 15.39 49.25 15.59Q48.89 15.9 48.64 16.34Q48.63 16.37 48.62 16.39Q48.24 17.08 48.24 17.97Q48.24 18.91 48.63 19.61Q48.87 20.03 49.2 20.34Q49.43 20.55 49.71 20.71Q49.87 20.8 50.03 20.86ZM75.83 20.86Q76.4 21.09 77.05 21.09Q77.72 21.09 78.3 20.86Q78.46 20.8 78.62 20.71Q78.92 20.54 79.17 20.32Q79.5 20.02 79.73 19.61Q79.75 19.58 79.77 19.54Q80.14 18.86 80.14 17.97Q80.14 17.03 79.74 16.33Q79.51 15.92 79.18 15.62Q78.94 15.41 78.65 15.25Q78.53 15.18 78.4 15.13Q77.81 14.87 77.1 14.87Q76.38 14.87 75.78 15.13Q75.66 15.19 75.55 15.25Q75.28 15.39 75.06 15.59Q74.7 15.9 74.45 16.34Q74.44 16.37 74.42 16.39Q74.05 17.08 74.05 17.97Q74.05 18.91 74.44 19.61Q74.67 20.03 75 20.34Q75.24 20.55 75.52 20.71Q75.67 20.8 75.83 20.86ZM81.46 16.34Q81.09 17.03 81.09 17.96Q81.09 18.87 81.46 19.58L81.46 19.59Q81.73 20.1 82.14 20.45Q82.3 20.59 82.49 20.7Q82.69 20.82 82.91 20.91Q83.39 21.09 83.94 21.09Q84.69 21.09 85.26 20.78Q85.29 20.76 85.31 20.75Q85.85 20.43 86.14 19.96Q86.17 19.92 86.2 19.87L86.2 21L87.21 21L87.21 14.97L86.2 14.97L86.2 16.07Q86.18 16.03 86.15 16Q85.87 15.53 85.33 15.21Q84.74 14.87 83.95 14.87Q83.39 14.87 82.9 15.06Q82.69 15.14 82.49 15.25Q82.27 15.38 82.08 15.55Q81.71 15.88 81.46 16.34ZM100.68 20.86Q101.25 21.09 101.9 21.09Q102.57 21.09 103.15 20.86Q103.31 20.8 103.47 20.71Q103.77 20.54 104.02 20.32Q104.35 20.02 104.58 19.61Q104.6 19.58 104.62 19.54Q104.99 18.86 104.99 17.97Q104.99 17.03 104.59 16.33Q104.36 15.92 104.02 15.62Q103.79 15.41 103.5 15.25Q103.38 15.18 103.25 15.13Q102.65 14.87 101.95 14.87Q101.23 14.87 100.63 15.13Q100.51 15.19 100.4 15.25Q100.13 15.39 99.91 15.59Q99.55 15.9 99.3 16.34Q99.28 16.37 99.27 16.39Q98.9 17.08 98.9 17.97Q98.9 18.91 99.29 19.61Q99.52 20.03 99.85 20.34Q100.09 20.55 100.37 20.71Q100.52 20.8 100.68 20.86ZM132.8 18.36Q132.83 18.04 132.83 17.75Q132.83 17 132.54 16.39Q132.51 16.33 132.48 16.27Q132.32 15.98 132.1 15.74Q131.83 15.45 131.46 15.24Q131.43 15.23 131.41 15.21Q130.77 14.87 129.94 14.87Q129.09 14.87 128.42 15.23Q128.4 15.24 128.38 15.25Q128.11 15.4 127.89 15.6Q127.56 15.91 127.33 16.33Q126.96 17.03 126.96 17.97Q126.96 18.91 127.35 19.61Q127.58 20.05 127.93 20.37Q128.15 20.56 128.41 20.71Q128.5 20.77 128.61 20.81Q129.21 21.09 129.94 21.09Q130.92 21.09 131.61 20.65Q131.68 20.6 131.75 20.55Q132.12 20.27 132.37 19.9Q132.6 19.55 132.71 19.14L131.64 19.14Q131.54 19.4 131.38 19.61Q131.23 19.8 131.02 19.95Q130.59 20.25 129.94 20.25Q129.46 20.25 129.06 20.06Q128.81 19.94 128.59 19.75Q128.48 19.65 128.39 19.53Q128.03 19.07 127.98 18.36L132.8 18.36ZM61.81 21L63.69 14.97L62.7 14.97L61.34 20.04L59.87 14.97L58.85 14.97L57.35 20.03L55.97 14.97L54.94 14.97L56.84 21L57.87 21L59.32 16.21L60.77 21L61.81 21ZM131.55 16.56Q131.8 16.97 131.8 17.54L128 17.54Q128.06 16.83 128.44 16.38Q128.51 16.28 128.6 16.2Q128.82 16.01 129.07 15.89Q129.44 15.72 129.9 15.72Q130.36 15.72 130.76 15.88Q130.81 15.9 130.86 15.93Q131.08 16.04 131.25 16.2Q131.42 16.35 131.55 16.56ZM51.8 20.14Q51.53 20.21 51.25 20.21Q50.88 20.21 50.56 20.1Q50.41 20.05 50.26 19.97Q50.18 19.92 50.1 19.87Q49.76 19.63 49.54 19.21Q49.27 18.71 49.27 17.97Q49.27 17.24 49.54 16.74Q49.77 16.32 50.12 16.08Q50.19 16.03 50.27 15.98Q50.39 15.92 50.52 15.87Q50.87 15.74 51.28 15.74Q51.61 15.74 51.9 15.83Q52.1 15.89 52.28 15.98Q52.36 16.03 52.44 16.08Q52.79 16.32 53.03 16.74Q53.32 17.24 53.32 17.97Q53.32 18.7 53.02 19.2Q52.8 19.59 52.47 19.83Q52.37 19.9 52.26 19.96Q52.04 20.08 51.8 20.14ZM77.61 20.14Q77.34 20.21 77.05 20.21Q76.69 20.21 76.37 20.1Q76.21 20.05 76.06 19.97Q75.99 19.92 75.91 19.87Q75.57 19.63 75.34 19.21Q75.07 18.71 75.07 17.97Q75.07 17.24 75.35 16.74Q75.58 16.32 75.92 16.08Q76 16.03 76.08 15.98Q76.2 15.92 76.32 15.87Q76.68 15.74 77.09 15.74Q77.41 15.74 77.71 15.83Q77.9 15.89 78.09 15.98Q78.17 16.03 78.24 16.08Q78.6 16.32 78.83 16.74Q79.12 17.24 79.12 17.97Q79.12 18.7 78.83 19.2Q78.61 19.59 78.28 19.83Q78.18 19.9 78.07 19.96Q77.84 20.08 77.61 20.14ZM85.92 16.78Q86.2 17.29 86.2 17.97Q86.2 18.65 85.92 19.16Q85.72 19.54 85.42 19.78Q85.3 19.87 85.18 19.95Q85.02 20.04 84.84 20.1Q84.52 20.21 84.15 20.21Q83.77 20.21 83.43 20.09Q83.27 20.03 83.13 19.95Q83.02 19.88 82.93 19.81Q82.6 19.56 82.39 19.16Q82.11 18.65 82.11 17.96Q82.11 17.28 82.39 16.77Q82.6 16.38 82.93 16.13Q83.02 16.06 83.13 16Q83.27 15.92 83.42 15.86Q83.76 15.74 84.15 15.74Q84.51 15.74 84.83 15.85Q85.01 15.91 85.18 16.01Q85.31 16.08 85.42 16.18Q85.72 16.42 85.92 16.78ZM93.36 16.78Q93.63 17.29 93.63 17.97Q93.63 18.65 93.36 19.16Q93.16 19.54 92.85 19.78Q92.74 19.87 92.61 19.95Q92.45 20.04 92.28 20.1Q91.95 20.21 91.59 20.21Q91.2 20.21 90.87 20.09Q90.71 20.03 90.56 19.95Q90.46 19.88 90.36 19.81Q90.04 19.56 89.82 19.16Q89.55 18.65 89.55 17.96Q89.55 17.28 89.82 16.77Q90.04 16.38 90.36 16.13Q90.46 16.06 90.56 16Q90.7 15.92 90.86 15.86Q91.2 15.74 91.59 15.74Q91.94 15.74 92.27 15.85Q92.45 15.91 92.61 16.01Q92.74 16.08 92.86 16.18Q93.16 16.42 93.36 16.78ZM102.46 20.14Q102.19 20.21 101.9 20.21Q101.54 20.21 101.22 20.1Q101.06 20.05 100.91 19.97Q100.83 19.92 100.76 19.87Q100.42 19.63 100.19 19.21Q99.92 18.71 99.92 17.97Q99.92 17.24 100.2 16.74Q100.42 16.32 100.77 16.08Q100.85 16.03 100.93 15.98Q101.05 15.92 101.17 15.87Q101.53 15.74 101.94 15.74Q102.26 15.74 102.56 15.83Q102.75 15.89 102.94 15.98Q103.02 16.03 103.09 16.08Q103.45 16.32 103.68 16.74Q103.97 17.24 103.97 17.97Q103.97 18.7 103.68 19.2Q103.46 19.59 103.13 19.83Q103.03 19.9 102.92 19.96Q102.69 20.08 102.46 20.14Z" fill="#4D4D4D" fill-opacity="1.000000" fill-rule="evenodd"/>
	<path id="Google play" d="M86.65 42L86.65 30.16L84.83 30.16L84.83 42L86.65 42ZM115.75 42L115.75 30.16L113.93 30.16L113.93 42L115.75 42ZM48.49 33.12Q48.95 33.5 49.24 34.07L51.44 34.07Q51.05 33.09 50.37 32.38Q49.95 31.94 49.42 31.6Q49.09 31.39 48.72 31.23Q47.61 30.73 46.27 30.73Q45.25 30.73 44.35 31.04Q43.86 31.21 43.41 31.46Q42.8 31.8 42.31 32.26Q41.75 32.79 41.35 33.48Q41.19 33.76 41.06 34.04Q40.59 35.12 40.59 36.41Q40.59 37.71 41.07 38.8Q41.19 39.08 41.35 39.34Q41.76 40.05 42.34 40.59Q42.82 41.04 43.4 41.37Q43.77 41.58 44.17 41.72Q45.15 42.09 46.27 42.09Q47.4 42.09 48.37 41.7Q48.65 41.59 48.91 41.44Q49.69 41.02 50.28 40.42Q50.59 40.09 50.85 39.71Q51.26 39.12 51.49 38.47Q51.69 37.92 51.77 37.32L51.77 35.9L45.64 35.9L45.64 37.35L49.82 37.35Q49.65 38.49 49.03 39.25Q48.87 39.44 48.68 39.61Q48.53 39.75 48.35 39.87Q47.5 40.44 46.27 40.44Q45.3 40.44 44.51 40.06Q44.4 40.01 44.3 39.95Q43.99 39.77 43.73 39.54Q43.26 39.12 42.95 38.53Q42.46 37.61 42.46 36.41Q42.46 35.21 42.95 34.3Q43.26 33.72 43.71 33.31Q43.98 33.07 44.3 32.89Q44.4 32.83 44.51 32.78Q45.3 32.39 46.27 32.39Q47.28 32.39 48.04 32.82Q48.28 32.95 48.49 33.12ZM55.57 41.79Q56.41 42.14 57.39 42.14Q58.34 42.14 59.16 41.82Q59.44 41.71 59.7 41.57Q60.18 41.31 60.58 40.94Q61.03 40.52 61.36 39.96Q61.43 39.84 61.49 39.71Q61.96 38.77 61.96 37.58Q61.96 36.33 61.45 35.34Q61.41 35.27 61.37 35.19Q61.02 34.58 60.52 34.14Q60.18 33.83 59.75 33.6Q59.55 33.49 59.35 33.4Q58.48 33.03 57.47 33.03Q56.43 33.03 55.56 33.41Q55.37 33.49 55.18 33.6Q54.76 33.83 54.41 34.14Q53.91 34.58 53.56 35.19Q53.53 35.26 53.49 35.32Q52.97 36.32 52.97 37.58Q52.97 38.94 53.55 39.97Q53.88 40.56 54.35 41Q54.7 41.33 55.13 41.57Q55.35 41.69 55.57 41.79ZM65.78 41.79Q66.61 42.14 67.59 42.14Q68.54 42.14 69.37 41.82Q69.65 41.71 69.91 41.57Q70.39 41.31 70.78 40.94Q71.24 40.52 71.56 39.96Q71.64 39.84 71.7 39.71Q72.17 38.77 72.17 37.58Q72.17 36.33 71.66 35.34Q71.62 35.27 71.58 35.19Q71.23 34.58 70.73 34.14Q70.38 33.83 69.96 33.6Q69.76 33.49 69.55 33.4Q68.69 33.03 67.68 33.03Q66.64 33.03 65.77 33.41Q65.57 33.49 65.39 33.6Q64.97 33.83 64.62 34.14Q64.12 34.58 63.77 35.19Q63.73 35.26 63.7 35.32Q63.18 36.32 63.18 37.58Q63.18 38.94 63.75 39.97Q64.08 40.56 64.56 41Q64.91 41.33 65.34 41.57Q65.56 41.69 65.78 41.79ZM79.35 33.44Q78.56 33.03 77.53 33.03Q76.81 33.03 76.16 33.26Q75.78 33.39 75.43 33.6Q75.11 33.79 74.83 34.04Q74.29 34.51 73.92 35.19Q73.37 36.22 73.37 37.55Q73.37 38.83 73.89 39.86Q73.91 39.89 73.92 39.92Q74.31 40.65 74.89 41.16Q75.14 41.38 75.43 41.56Q75.8 41.79 76.21 41.93Q76.83 42.14 77.53 42.14Q78.52 42.14 79.29 41.74Q79.31 41.73 79.33 41.72Q80.12 41.29 80.59 40.67L80.59 42.14Q80.59 43.34 79.99 44.01Q79.95 44.05 79.91 44.09Q79.73 44.26 79.53 44.39Q78.95 44.76 78.12 44.76Q77.18 44.76 76.5 44.34L76.5 44.34Q76.02 44.04 75.78 43.61Q75.67 43.43 75.61 43.23L73.8 43.23Q73.88 43.94 74.22 44.51Q74.55 45.09 75.15 45.51Q76.33 46.35 78.12 46.35Q79.47 46.35 80.44 45.8Q81 45.49 81.41 45.03Q81.7 44.7 81.92 44.31Q81.93 44.27 81.95 44.24Q82.43 43.31 82.43 42.14L82.43 33.18L80.59 33.18L80.59 34.46Q80.14 33.85 79.35 33.44ZM97.07 38.27Q97.13 37.87 97.13 37.37Q97.13 36.13 96.62 35.16Q96.6 35.14 96.59 35.11Q96.3 34.6 95.9 34.2Q95.53 33.84 95.07 33.58Q94.97 33.53 94.87 33.48Q93.97 33.03 92.84 33.03Q91.61 33.03 90.64 33.54Q90.59 33.57 90.55 33.6Q90.11 33.84 89.76 34.17Q89.31 34.6 89 35.19Q88.44 36.22 88.44 37.58Q88.44 38.94 89.01 39.97Q89.34 40.56 89.8 41Q90.15 41.33 90.58 41.57Q90.72 41.65 90.86 41.72Q91.76 42.14 92.84 42.14Q94.27 42.14 95.26 41.49Q95.35 41.43 95.44 41.37Q96.02 40.94 96.4 40.37Q96.71 39.92 96.89 39.37L94.92 39.37Q94.66 39.91 94.22 40.22Q93.67 40.6 92.84 40.6Q92.19 40.6 91.67 40.35Q91.37 40.2 91.11 39.96Q90.89 39.77 90.74 39.53Q90.39 39 90.33 38.27L97.07 38.27ZM106.17 33.45Q105.37 33.87 104.91 34.48L104.91 33.18L103.08 33.18L103.08 46.19L104.91 46.19L104.91 40.71Q105.4 41.32 106.19 41.73Q106.97 42.14 107.98 42.14Q108.66 42.14 109.28 41.93Q109.7 41.79 110.08 41.56Q110.39 41.37 110.65 41.14Q111.21 40.64 111.58 39.92Q111.58 39.92 111.59 39.91Q112.12 38.86 112.12 37.55Q112.12 36.22 111.58 35.19Q111.23 34.53 110.7 34.06Q110.42 33.8 110.08 33.6Q109.72 33.39 109.32 33.25Q108.69 33.03 107.98 33.03Q107.01 33.03 106.24 33.42Q106.21 33.43 106.17 33.45ZM118.1 35.19Q117.55 36.22 117.55 37.55Q117.55 38.83 118.07 39.86Q118.08 39.89 118.1 39.92Q118.5 40.68 119.1 41.19Q119.33 41.39 119.6 41.56Q120 41.81 120.45 41.95Q121.03 42.14 121.67 42.14Q122.7 42.14 123.5 41.73Q124.3 41.31 124.76 40.68L124.76 42L126.6 42L126.6 33.18L124.76 33.18L124.76 34.46Q124.3 33.85 123.52 33.44Q122.75 33.03 121.71 33.03Q120.98 33.03 120.34 33.26Q119.96 33.39 119.6 33.6Q119.28 33.79 119.01 34.04Q118.47 34.51 118.1 35.19ZM131.53 46.14L136.94 33.18L135.05 33.18L132.48 39.9L129.99 33.18L127.96 33.18L131.44 41.85L129.64 46.14L131.53 46.14ZM94.94 35.7Q95.22 36.17 95.23 36.8L90.35 36.8Q90.45 36.01 90.86 35.48Q90.99 35.31 91.15 35.17Q91.43 34.92 91.75 34.77Q92.21 34.57 92.76 34.57Q93.52 34.57 94.1 34.89Q94.32 35.01 94.51 35.18Q94.78 35.41 94.94 35.7ZM58.07 40.47Q57.74 40.55 57.39 40.55Q56.77 40.55 56.28 40.31Q55.88 40.12 55.55 39.78Q55.53 39.76 55.51 39.74Q54.83 38.96 54.83 37.58Q54.83 36.62 55.18 35.96Q55.45 35.44 55.88 35.12Q56 35.03 56.13 34.96Q56.38 34.81 56.65 34.73Q57.03 34.62 57.43 34.62Q57.85 34.62 58.22 34.73Q58.49 34.82 58.75 34.96Q58.88 35.03 59.01 35.12Q59.44 35.44 59.72 35.96Q60.09 36.62 60.09 37.58Q60.09 38.54 59.71 39.21Q59.4 39.75 58.93 40.08Q58.82 40.15 58.71 40.22Q58.4 40.38 58.07 40.47ZM68.28 40.47Q67.95 40.55 67.59 40.55Q66.98 40.55 66.49 40.31Q66.09 40.12 65.76 39.78Q65.74 39.76 65.72 39.74Q65.04 38.96 65.04 37.58Q65.04 36.62 65.39 35.96Q65.66 35.44 66.09 35.12Q66.21 35.03 66.34 34.96Q66.59 34.81 66.86 34.73Q67.23 34.62 67.64 34.62Q68.05 34.62 68.43 34.73Q68.7 34.82 68.95 34.96Q69.09 35.03 69.22 35.12Q69.65 35.44 69.93 35.96Q70.3 36.62 70.3 37.58Q70.3 38.54 69.91 39.21Q69.6 39.75 69.14 40.08Q69.03 40.15 68.91 40.22Q68.61 40.38 68.28 40.47ZM80.21 36Q80.59 36.67 80.59 37.58Q80.59 38.49 80.21 39.17Q79.9 39.74 79.42 40.07Q79.33 40.14 79.22 40.2Q78.93 40.37 78.62 40.46Q78.28 40.55 77.92 40.55Q77.67 40.55 77.43 40.51Q77.01 40.42 76.61 40.19Q76.49 40.13 76.39 40.05Q75.92 39.7 75.62 39.15Q75.24 38.46 75.24 37.55Q75.24 36.64 75.62 35.97Q75.92 35.45 76.36 35.12Q76.48 35.04 76.6 34.96Q76.9 34.8 77.21 34.71Q77.55 34.62 77.92 34.62Q78.28 34.62 78.62 34.71Q78.93 34.8 79.22 34.97Q79.34 35.04 79.45 35.12Q79.91 35.45 80.21 36ZM109.89 35.97Q110.27 36.64 110.27 37.55Q110.27 38.46 109.89 39.15Q109.59 39.7 109.12 40.05Q109.02 40.13 108.9 40.19Q108.56 40.39 108.18 40.48Q107.89 40.55 107.58 40.55Q107.32 40.55 107.07 40.5Q106.66 40.42 106.27 40.2Q106.17 40.14 106.07 40.07Q105.59 39.73 105.28 39.17Q104.91 38.49 104.91 37.58Q104.91 36.67 105.28 36Q105.59 35.46 106.04 35.12Q106.15 35.04 106.27 34.97Q106.66 34.75 107.07 34.67Q107.32 34.62 107.58 34.62Q107.92 34.62 108.24 34.7Q108.58 34.79 108.9 34.96Q109.05 35.05 109.19 35.15Q109.61 35.47 109.89 35.97ZM124.39 36Q124.76 36.67 124.76 37.58Q124.76 38.49 124.39 39.17Q124.07 39.74 123.6 40.07Q123.5 40.14 123.4 40.2Q123.11 40.37 122.79 40.46Q122.45 40.55 122.09 40.55Q121.84 40.55 121.61 40.51Q121.18 40.42 120.79 40.19Q120.67 40.13 120.56 40.05Q120.1 39.7 119.8 39.15Q119.42 38.46 119.42 37.55Q119.42 36.64 119.8 35.97Q120.09 35.45 120.54 35.12Q120.65 35.04 120.78 34.96Q121.07 34.8 121.39 34.71Q121.73 34.62 122.09 34.62Q122.45 34.62 122.79 34.71Q123.11 34.8 123.4 34.97Q123.52 35.04 123.63 35.12Q124.08 35.45 124.39 36Z" fill="#1A1A1A" fill-opacity="1.000000" fill-rule="evenodd"/>
</svg>
