<svg width="40.000000" height="40.000000" viewBox="0 0 40 40" fill="none" xmlns="http://www.w3.org/2000/svg" xmlns:xlink="http://www.w3.org/1999/xlink">
	<desc>
			Created with Pixso.
	</desc>
	<defs>
		<clipPath id="clip27_72">
			<rect id="instagram 1" width="18.000000" height="18.000000" transform="translate(11.000000 10.500000)" fill="white" fill-opacity="0"/>
		</clipPath>
	</defs>
	<rect id="instagram 1" width="18.000000" height="18.000000" transform="translate(11.000000 10.500000)" fill="#FFFFFF" fill-opacity="0"/>
	<g clip-path="url(#clip27_72)">
		<path id="Vector" d="M28.98 15.79C28.94 14.83 28.78 14.17 28.56 13.6C28.33 13 27.98 12.46 27.52 12.01C27.07 11.55 26.52 11.19 25.93 10.97C25.35 10.75 24.7 10.59 23.74 10.55C22.78 10.51 22.47 10.5 20.03 10.5C17.58 10.5 17.28 10.51 16.32 10.55C15.36 10.59 14.71 10.74 14.14 10.97C13.53 11.19 12.99 11.55 12.54 12.01C12.08 12.46 11.73 13 11.5 13.6C11.28 14.17 11.13 14.83 11.08 15.78C11.04 16.75 11.03 17.05 11.03 19.5C11.03 21.94 11.04 22.25 11.08 23.21C11.12 24.16 11.28 24.82 11.5 25.39C11.73 25.99 12.08 26.54 12.54 26.99C12.99 27.44 13.53 27.8 14.13 28.02C14.71 28.25 15.36 28.4 16.32 28.44C17.28 28.48 17.58 28.49 20.03 28.49C22.47 28.49 22.77 28.48 23.73 28.44C24.69 28.4 25.35 28.25 25.92 28.02C27.13 27.56 28.08 26.6 28.55 25.39C28.77 24.82 28.93 24.16 28.97 23.21C29.01 22.25 29.02 21.94 29.02 19.5C29.02 17.05 29.02 16.75 28.98 15.79ZM27.36 23.14C27.32 24.02 27.17 24.49 27.05 24.81C26.74 25.59 26.12 26.21 25.34 26.52C25.02 26.64 24.54 26.79 23.67 26.82C22.72 26.87 22.43 26.88 20.03 26.88C17.63 26.88 17.34 26.87 16.4 26.82C15.52 26.79 15.04 26.64 14.73 26.52C14.34 26.37 13.98 26.14 13.69 25.84C13.39 25.55 13.16 25.2 13.02 24.81C12.9 24.49 12.75 24.02 12.71 23.14C12.67 22.19 12.66 21.91 12.66 19.5C12.66 17.1 12.67 16.81 12.71 15.87C12.75 14.99 12.9 14.51 13.02 14.2C13.16 13.81 13.39 13.45 13.7 13.16C13.99 12.86 14.34 12.64 14.73 12.49C15.05 12.37 15.52 12.22 16.4 12.18C17.35 12.14 17.63 12.13 20.04 12.13C22.44 12.13 22.73 12.14 23.67 12.18C24.55 12.22 25.03 12.37 25.34 12.49C25.73 12.64 26.09 12.86 26.38 13.16C26.67 13.46 26.9 13.81 27.05 14.2C27.17 14.51 27.32 14.99 27.36 15.87C27.4 16.82 27.41 17.1 27.41 19.5C27.41 21.91 27.4 22.19 27.36 23.14Z" fill="#B3B3B3" fill-opacity="1.000000" fill-rule="nonzero"/>
		<path id="Vector" d="M20.03 14.87C17.48 14.87 15.4 16.94 15.4 19.5C15.4 22.05 17.48 24.12 20.03 24.12C22.58 24.12 24.65 22.05 24.65 19.5C24.65 16.94 22.58 14.87 20.03 14.87ZM20.03 22.5C18.37 22.5 17.03 21.15 17.03 19.5C17.03 17.84 18.37 16.5 20.03 16.5C21.68 16.5 23.03 17.84 23.03 19.5C23.03 21.15 21.68 22.5 20.03 22.5Z" fill="#B3B3B3" fill-opacity="1.000000" fill-rule="nonzero"/>
		<path id="Vector" d="M25.91 14.69C25.91 15.29 25.43 15.77 24.84 15.77C24.24 15.77 23.76 15.29 23.76 14.69C23.76 14.09 24.24 13.61 24.84 13.61C25.43 13.61 25.91 14.09 25.91 14.69Z" fill="#B3B3B3" fill-opacity="1.000000" fill-rule="nonzero"/>
	</g>
</svg>
