<svg width="40.000000" height="40.000000" viewBox="0 0 40 40" fill="none" xmlns="http://www.w3.org/2000/svg" xmlns:xlink="http://www.w3.org/1999/xlink">
	<desc>
			Created with Pixso.
	</desc>
	<defs>
		<clipPath id="clip27_21">
			<rect id="pinterest 1" width="18.000000" height="18.000000" transform="translate(11.000000 10.500000)" fill="white" fill-opacity="0"/>
		</clipPath>
	</defs>
	<rect id="pinterest 1" width="18.000000" height="18.000000" transform="translate(11.000000 10.500000)" fill="#FFFFFF" fill-opacity="0"/>
	<g clip-path="url(#clip27_21)">
		<path id="Vector" d="M20.24 10.5C15.31 10.5 12.68 13.66 12.68 17.1C12.68 18.7 13.58 20.7 15.01 21.33C15.22 21.43 15.34 21.38 15.39 21.18C15.43 21.03 15.62 20.29 15.71 19.95C15.74 19.83 15.72 19.74 15.63 19.63C15.16 19.08 14.78 18.08 14.78 17.15C14.78 14.74 16.69 12.41 19.95 12.41C22.76 12.41 24.73 14.23 24.73 16.85C24.73 19.8 23.16 21.84 21.13 21.84C20.01 21.84 19.17 20.96 19.44 19.87C19.76 18.57 20.39 17.17 20.39 16.24C20.39 15.4 19.91 14.7 18.94 14.7C17.8 14.7 16.87 15.83 16.87 17.35C16.87 18.32 17.21 18.97 17.21 18.97C17.21 18.97 16.08 23.55 15.87 24.4C15.52 25.85 15.92 28.19 15.95 28.39C15.98 28.5 16.1 28.53 16.17 28.44C16.28 28.3 17.65 26.34 18.03 24.93C18.17 24.42 18.75 22.34 18.75 22.34C19.12 23.02 20.21 23.59 21.37 23.59C24.82 23.59 27.31 20.56 27.31 16.8C27.29 13.19 24.21 10.5 20.24 10.5Z" fill="#B3B3B3" fill-opacity="1.000000" fill-rule="nonzero"/>
	</g>
</svg>
