<svg width="40.000000" height="40.000000" viewBox="0 0 40 40" fill="none" xmlns="http://www.w3.org/2000/svg" xmlns:xlink="http://www.w3.org/1999/xlink">
	<desc>
			Created with Pixso.
	</desc>
	<defs>
		<clipPath id="clip27_516">
			<rect id="twitter 1" width="18.000000" height="18.000000" transform="translate(11.000000 10.500000)" fill="white" fill-opacity="0"/>
		</clipPath>
	</defs>
	<rect id="twitter 1" width="18.000000" height="18.000000" transform="translate(11.000000 10.500000)" fill="#FFFFFF" fill-opacity="0"/>
	<g clip-path="url(#clip27_516)">
		<path id="Vector" d="M29 13.91C28.33 14.21 27.61 14.4 26.87 14.5C27.63 14.04 28.22 13.32 28.49 12.46C27.78 12.88 26.99 13.18 26.15 13.35C25.48 12.63 24.51 12.18 23.46 12.18C21.41 12.18 19.77 13.84 19.77 15.87C19.77 16.17 19.79 16.45 19.85 16.72C16.79 16.57 14.07 15.1 12.25 12.86C11.93 13.41 11.74 14.04 11.74 14.72C11.74 16 12.4 17.13 13.38 17.79C12.79 17.78 12.21 17.6 11.72 17.33C11.72 17.34 11.72 17.36 11.72 17.37C11.72 19.17 12.99 20.66 14.67 21C14.37 21.08 14.04 21.12 13.7 21.12C13.47 21.12 13.23 21.11 13.01 21.06C13.48 22.52 14.84 23.59 16.45 23.63C15.2 24.61 13.6 25.2 11.88 25.2C11.58 25.2 11.29 25.19 11 25.15C12.63 26.21 14.57 26.81 16.66 26.81C23.45 26.81 27.16 21.18 27.16 16.31C27.16 16.14 27.15 15.99 27.15 15.83C27.88 15.31 28.49 14.66 29 13.91Z" fill="#B3B3B3" fill-opacity="1.000000" fill-rule="nonzero"/>
	</g>
</svg>
