<svg width="16.000000" height="19.007967" viewBox="0 0 16 19.008" fill="none" xmlns="http://www.w3.org/2000/svg" xmlns:xlink="http://www.w3.org/1999/xlink">
	<desc>
			Created with Pixso.
	</desc>
	<defs/>
	<path id="Vector" d="M8 18.5C8 18.5 0.5 13.59 0.5 7.86C0.5 5.91 1.29 4.03 2.69 2.65C4.1 1.27 6.01 0.5 8 0.5C9.98 0.5 11.89 1.27 13.3 2.65C14.7 4.03 15.5 5.91 15.5 7.86C15.5 13.59 8 18.5 8 18.5Z" stroke="#000" stroke-opacity="1.000000" stroke-width="1.000000" stroke-linejoin="round"/>
	<path id="Vector" d="M8 10.31C6.61 10.31 5.5 9.21 5.5 7.86C5.5 6.5 6.61 5.4 8 5.4C9.38 5.4 10.5 6.5 10.5 7.86C10.5 9.21 9.38 10.31 8 10.31Z" stroke="#000" stroke-opacity="1.000000" stroke-width="1.000000" stroke-linejoin="round"/>
</svg>
