<svg width="32.000000" height="32.000000" viewBox="0 0 32 32" fill="none" xmlns="http://www.w3.org/2000/svg" xmlns:xlink="http://www.w3.org/1999/xlink">
	<desc>
			Created with Pixso.
	</desc>
	<defs>
		<clipPath id="clip59_16480">
			<rect id="plant 1" width="32.000000" height="32.000000" fill="white" fill-opacity="0"/>
		</clipPath>
	</defs>
	<g clip-path="url(#clip59_16480)">
		<path id="Vector" d="M31.27 4.34C27.4 4.34 21.93 4.66 19.13 7.46C17.92 8.67 17.32 10.64 17.47 12.87C17.49 13.17 17.69 13.42 17.97 13.51C18.25 13.6 18.56 13.52 18.75 13.29C20.31 11.46 22.24 10 24.5 8.94C24.69 8.84 24.92 8.84 25.12 8.91C25.31 8.97 25.45 9.1 25.52 9.26C25.68 9.58 25.63 10.01 25.12 10.25C25.09 10.27 25.06 10.29 25.03 10.3C25.02 10.3 25.01 10.3 25 10.31C19.43 12.92 16.69 17.49 15.45 22.19C14.54 16.31 12.62 12.85 10.82 10.72C9.51 9.02 8.22 8.12 7.47 7.61C7.34 7.52 6.92 7.24 6.75 7.06C6.46 6.78 6.46 6.32 6.75 6.04C7.03 5.75 7.49 5.75 7.81 6.07C7.88 6.14 8.01 6.22 8.16 6.33L8.29 6.41C9.35 7.14 11.31 8.47 13.04 11.36C13.2 11.61 13.5 11.75 13.79 11.7C14.09 11.64 14.32 11.41 14.38 11.12C14.76 9.18 14.59 6.31 12.86 4.58C10.06 1.79 4.59 1.46 0.72 1.46C0.32 1.46 0 1.79 0 2.19C0 6.06 0.32 11.53 3.11 14.33C4.28 15.5 6.08 16.02 7.86 16.02C9.32 16.02 10.75 15.65 11.84 15.02C13.33 18.11 14.53 22.73 14.53 29.8C14.53 30.2 14.85 30.53 15.25 30.53C15.65 30.53 15.98 30.2 15.98 29.8C15.98 25.86 16.66 21.13 19.17 17.23C20.18 18.22 21.91 18.84 23.83 18.9C23.93 18.9 24.02 18.9 24.11 18.9C26.07 18.9 27.79 18.29 28.88 17.2C31.67 14.41 31.99 8.94 31.99 5.06C32 4.66 31.67 4.34 31.27 4.34Z" fill="#00B307" fill-opacity="1.000000" fill-rule="nonzero"/>
	</g>
</svg>
